<svg width="128" height="14" viewBox="0 0 128 14" fill="none" xmlns="http://www.w3.org/2000/svg">
<path d="M10.8809 8.22754L12.3486 0.203125H15.4072L12.6914 13H9.49219L7.77832 5.70508L6.09961 13H2.90918L0.18457 0.203125H3.25195L4.71973 8.22754L6.47754 0.203125H9.09668L10.8809 8.22754ZM23.4932 10.6094H19.2656L18.5273 13H15.2314L19.9248 0.203125H22.8252L27.5537 13H24.2402L23.4932 10.6094ZM20.0039 8.22754H22.7549L21.375 3.78906L20.0039 8.22754ZM32.7744 9.51953L35.3232 0.203125H38.7686L34.4619 13H31.0869L26.8154 0.203125H30.2344L32.7744 9.51953ZM47.6455 7.57715H42.7939V10.627H48.5244V13H39.709V0.203125H48.542V2.58496H42.7939V5.2832H47.6455V7.57715ZM56.3818 9.59863C56.3818 9.14746 56.2207 8.7959 55.8984 8.54395C55.582 8.29199 55.0225 8.03125 54.2197 7.76172C53.417 7.49219 52.7607 7.23145 52.251 6.97949C50.5928 6.16504 49.7637 5.0459 49.7637 3.62207C49.7637 2.91309 49.9688 2.28906 50.3789 1.75C50.7949 1.20508 51.3809 0.783203 52.1367 0.484375C52.8926 0.179687 53.7422 0.0273438 54.6855 0.0273438C55.6055 0.0273438 56.4287 0.191406 57.1553 0.519531C57.8877 0.847656 58.4561 1.31641 58.8604 1.92578C59.2646 2.5293 59.4668 3.2207 59.4668 4H56.3906C56.3906 3.47852 56.2295 3.07422 55.9072 2.78711C55.5908 2.5 55.1602 2.35645 54.6152 2.35645C54.0645 2.35645 53.6279 2.47949 53.3057 2.72559C52.9893 2.96582 52.8311 3.27344 52.8311 3.64844C52.8311 3.97656 53.0068 4.27539 53.3584 4.54492C53.71 4.80859 54.3281 5.08398 55.2129 5.37109C56.0977 5.65234 56.8242 5.95703 57.3926 6.28516C58.7754 7.08203 59.4668 8.18066 59.4668 9.58105C59.4668 10.7002 59.0449 11.5791 58.2012 12.2178C57.3574 12.8564 56.2002 13.1758 54.7295 13.1758C53.6924 13.1758 52.752 12.9912 51.9082 12.6221C51.0703 12.2471 50.4375 11.7373 50.0098 11.0928C49.5879 10.4424 49.377 9.69531 49.377 8.85156H52.4707C52.4707 9.53711 52.6465 10.0439 52.998 10.3721C53.3555 10.6943 53.9326 10.8555 54.7295 10.8555C55.2393 10.8555 55.6406 10.7471 55.9336 10.5303C56.2324 10.3076 56.3818 9.99707 56.3818 9.59863ZM64.1338 10.627H69.5039V13H61.0488V0.203125H64.1338V10.627ZM78.7412 7.57715H73.8896V10.627H79.6201V13H70.8047V0.203125H79.6377V2.58496H73.8896V5.2832H78.7412V7.57715ZM91.5645 13H88.4971L83.9619 5.03711V13H80.877V0.203125H83.9619L88.4883 8.16602V0.203125H91.5645V13ZM103.992 11.418C103.518 11.9453 102.823 12.3701 101.909 12.6924C100.995 13.0146 99.9932 13.1758 98.9033 13.1758C97.2275 13.1758 95.8887 12.6631 94.8867 11.6377C93.8848 10.6123 93.3486 9.18555 93.2783 7.35742L93.2695 6.25C93.2695 4.99023 93.4922 3.8916 93.9375 2.9541C94.3828 2.01074 95.0186 1.28711 95.8447 0.783203C96.6768 0.273438 97.6377 0.0185547 98.7275 0.0185547C100.321 0.0185547 101.558 0.384766 102.437 1.11719C103.321 1.84375 103.837 2.93066 103.983 4.37793H101.013C100.907 3.66309 100.679 3.15332 100.327 2.84863C99.9756 2.54395 99.4775 2.3916 98.833 2.3916C98.0596 2.3916 97.4619 2.71973 97.04 3.37598C96.6182 4.03223 96.4043 4.96973 96.3984 6.18848V6.96191C96.3984 8.23926 96.6152 9.2002 97.0488 9.84473C97.4883 10.4834 98.1768 10.8027 99.1143 10.8027C99.917 10.8027 100.515 10.624 100.907 10.2666V8.28027H98.7627V6.16211H103.992V11.418ZM115.831 2.58496H111.99V13H108.905V2.58496H105.135V0.203125H115.831V2.58496ZM127.837 13H124.77V7.65625H120.226V13H117.141V0.203125H120.226V5.2832H124.77V0.203125H127.837V13Z" fill="white"/>
</svg>
